<svg id="Layer_1" data-name="Layer 1" xmlns="http://www.w3.org/2000/svg" viewBox="0 0 40 40">
    <defs>
        <style>.cls-1{fill:none;}.cls-2{fill:#5a783b;}.cls-3{fill:#3d5b3d;}.cls-4{fill:#599642;}.cls-5{fill:#f0b032;}
        </style>
    </defs>
    <path class="cls-1" d="M5.58,0H0V6.73A6.88,6.88,0,0,1,5.58,0Z"/>
    <path class="cls-1" d="M40,6.73V0H34.43A6.88,6.88,0,0,1,40,6.73Z"/>
    <path class="cls-1" d="M40,39.87V33a6.88,6.88,0,0,1-6.86,6.85H6.86A6.88,6.88,0,0,1,0,33v7H40Z"/>
    <path class="cls-2"
          d="M34.57,18.14a11.88,11.88,0,0,1-2.4,8.76L40,31.42V8.34l-7.69,4.44A11.72,11.72,0,0,1,34.57,18.14Z"/>
    <path class="cls-2" d="M29.1,20.1A9.45,9.45,0,0,0,28,15.27l-1.55.9L20,19.88l8.09,4.67A7.64,7.64,0,0,0,29.1,20.1Z"/>
    <path class="cls-3"
          d="M6.86,39.87H33.14A6.88,6.88,0,0,0,40,33v-1.6L32.17,26.9c-2.67,3.35-7.39,5.26-13.55,5.21-5,0-9.07-1.4-11.37-4.86L0,31.44V33A6.88,6.88,0,0,0,6.86,39.87Z"/>
    <path class="cls-3" d="M11.93,24.55a8.66,8.66,0,0,0,7.73,4.21c3.56-.19,6.85-1.52,8.44-4.21L20,19.88Z"/>
    <path class="cls-4"
          d="M5.74,23.72C3.64,14.7,10.61,7.8,20.6,7.64,26,7.67,30,9.69,32.31,12.78L40,8.34V6.73A6.88,6.88,0,0,0,34.43,0H5.58A6.88,6.88,0,0,0,0,6.73V31.44l7.25-4.19A11.21,11.21,0,0,1,5.74,23.72Z"/>
    <path class="cls-4"
          d="M20,19.88l6.44-3.71,1.55-.9c-1.34-2.35-4-3.89-8.29-4-5.29,0-8.84,3.74-8.84,9.31a8,8,0,0,0,1.06,4Z"/>
    <path class="cls-5"
          d="M34.57,18.14a11.72,11.72,0,0,0-2.26-5.36C30,9.69,26,7.67,20.6,7.64c-10,.16-17,7.06-14.86,16.08a11.21,11.21,0,0,0,1.51,3.53c2.3,3.46,6.41,4.91,11.37,4.86,6.16,0,10.88-1.86,13.55-5.21A11.88,11.88,0,0,0,34.57,18.14ZM19.66,28.76a8.66,8.66,0,0,1-7.73-4.21,8,8,0,0,1-1.06-4c0-5.57,3.55-9.31,8.84-9.31,4.33.14,7,1.68,8.29,4a9.45,9.45,0,0,1,1.1,4.83,7.64,7.64,0,0,1-1,4.45C26.51,27.24,23.22,28.57,19.66,28.76Z"/>
</svg>